<?xml version="1.0" encoding="utf-8"?>
<!-- Generator: Adobe Illustrator 25.0.1, SVG Export Plug-In . SVG Version: 6.00 Build 0)  -->
<svg version="1.1" id="레이어_1" xmlns="http://www.w3.org/2000/svg" xmlns:xlink="http://www.w3.org/1999/xlink" x="0px"
	 y="0px" viewBox="0 0 300.4 66.9" style="enable-background:new 0 0 300.4 66.9;" xml:space="preserve">
<style type="text/css">
	.st0{fill:#E83B3B;}
</style>
<g>
	<g>
		<polygon points="195.7,0 180.7,66.9 194.2,66.9 195.3,62 208.6,0 		"/>
		<polygon points="221.5,0 213.2,0.1 210.9,11.2 211,11.2 217.7,43 204.4,43 202,54.8 220.3,54.8 222.9,66.9 236.5,66.9 		"/>
		<polygon points="97,0 82,66.9 95.5,66.9 96.6,62 109.9,0 		"/>
		<polygon points="114.5,0.1 112.2,11.2 112.2,11.2 119,43 105.7,43 103.3,54.8 121.6,54.8 124.2,66.9 137.8,66.9 122.8,0 		"/>
		<polygon points="183.8,0 134.7,0 134.7,12 152.6,12 152.6,66.9 166.1,66.9 166.1,12 183.8,12 		"/>
		<path d="M54.3,66.6"/>
		<polygon points="51.7,0 36,0 24.6,52.3 17,18.4 12.9,0 0,0 0,0 0,0 0,0 0,0.1 13.3,62 14.3,66.9 27.9,66.9 33.3,66.9 43.9,16 
			54.3,66.6 60.5,40.2 		"/>
		<polygon points="59.6,66.9 60.7,62 71.9,11.9 74.5,0 87.4,0 74.1,62 73.1,66.9 63.5,66.9 63.5,66.9 		"/>
		<polygon class="st0" points="287.5,0 272.4,66.9 286,66.9 287.1,62 300.4,0 		"/>
		<polygon class="st0" points="250.1,66.9 251.1,62 262.3,11.9 265,0 277.9,0 264.6,62 263.5,66.9 254,66.9 254,66.9 		"/>
	</g>
</g>
</svg>
