<?xml version="1.0" encoding="utf-8"?>
<!-- Generator: Adobe Illustrator 25.2.1, SVG Export Plug-In . SVG Version: 6.00 Build 0)  -->
<svg version="1.1" id="레이어_1" xmlns="http://www.w3.org/2000/svg" xmlns:xlink="http://www.w3.org/1999/xlink" x="0px"
	 y="0px" viewBox="0 0 24 24" style="enable-background:new 0 0 24 24;" xml:space="preserve">
<style type="text/css">
	.st0{fill:#FFFFFF;}
</style>
<path class="st0" d="M9.4,9.1c0.1,0.1,0.1,0.1,0.2,0.1h4.9c0.1,0,0.1-0.1,0.1-0.1c0.4-0.4,0.7-0.9,0.8-1.4c0.2-0.5,0.1-1.1-0.2-1.4
	C15,5.9,14.4,5.8,13.9,6c-0.5,0.1-1,0.5-1.3,0.9c-0.2,0.3-0.5,0.5-0.6,0.8c-0.1-0.3-0.4-0.5-0.6-0.8c-0.8-1-2-1.3-2.6-0.6
	C8.4,6.6,8.4,7.2,8.5,7.7C8.8,8.2,9,8.7,9.4,9.1z M6,9.9l1.3,7.7c0.1,0.4,0.4,0.5,0.6,0.5h8.3c0.4,0,0.6-0.3,0.6-0.5L18,9.9H6z"/>
</svg>
