<?xml version="1.0" encoding="utf-8"?>
<!-- Generator: Adobe Illustrator 25.2.1, SVG Export Plug-In . SVG Version: 6.00 Build 0)  -->
<svg version="1.1" id="레이어_1" xmlns="http://www.w3.org/2000/svg" xmlns:xlink="http://www.w3.org/1999/xlink" x="0px"
	 y="0px" viewBox="0 0 24 23" style="enable-background:new 0 0 24 23;" xml:space="preserve">
<style type="text/css">
	.st0{fill:#FFFFFF;}
</style>
<path class="st0" d="M10.5,10.7H7.2L6,9.5c-0.4-0.4-0.9-0.4-1.2,0c-0.4,0.4-0.4,0.9,0,1.2L6,12v4.7c0,0.5,0.4,0.9,0.9,0.9
	s1-0.4,1-0.9v-2.1h5v2.1c0,0.5,0.4,0.9,0.9,0.9c0.5,0,0.7-0.4,0.7-0.9v-3.2c0-0.4,0.1-0.6,0.1-0.9L11.8,10
	C11.5,10.4,11,10.7,10.5,10.7z M19,8.9c-0.2-0.1-0.6-0.2-0.9-0.2c-0.1-1-0.7-1.5-1.2-1.6c0-0.9-0.4-1.6-0.9-1.6
	c-0.4,0-0.7,0.7-0.9,1.6c-0.7,0.2-1.3,0.9-1.8,1.5l-0.7,0.7l2.7,2.7l0.1-0.1c1-0.7,2.6,0,3.5-0.9C19.5,10.5,19.8,9.4,19,8.9L19,8.9z
	"/>
</svg>
