<?xml version="1.0" encoding="utf-8"?>
<!-- Generator: Adobe Illustrator 25.2.1, SVG Export Plug-In . SVG Version: 6.00 Build 0)  -->
<svg version="1.1" id="레이어_1" xmlns="http://www.w3.org/2000/svg" xmlns:xlink="http://www.w3.org/1999/xlink" x="0px"
	 y="0px" viewBox="0 0 24 24" style="enable-background:new 0 0 24 24;" xml:space="preserve">
<path fill="#fff" d="M17.9,8.1c0-3.4-3.9-3.4-5.9-3.4s-6.1,0-6.1,3.4c0,2.6,3.2,6.5,5.6,7.2c-1,0.3-2,2-2,2.8c0,1.6,1.9,1.6,2.4,1.6
	s2.4,0,2.4-1.6c0-1-1-2.4-1.9-2.9C14.6,14.6,17.9,10.5,17.9,8.1z M11.9,13.9c-1.5,0-4.7-3.8-4.7-5.9c0-1.6,1.2-2.1,4.7-2.1
	c3.5,0,4.7,0.5,4.7,2.1C16.7,10.2,13.3,13.9,11.9,13.9z"/>
</svg>
