<?xml version="1.0" encoding="utf-8"?>
<!-- Generator: Adobe Illustrator 25.2.1, SVG Export Plug-In . SVG Version: 6.00 Build 0)  -->
<svg version="1.1" id="레이어_1" xmlns="http://www.w3.org/2000/svg" xmlns:xlink="http://www.w3.org/1999/xlink" x="0px"
	 y="0px" viewBox="0 0 24 24" style="enable-background:new 0 0 24 24;" xml:space="preserve">
<g>
	<path fill="#fff" d="M12.1,6.3c1.3,0,2.4,1.1,2.4,2.3h0.9c0-1.8-1.5-3.2-3.3-3.2S8.7,6.9,8.7,8.7h0.9C9.7,7.4,10.7,6.3,12.1,6.3z M17.4,9.7H6.7
		c-0.3,0-0.5,0.3-0.5,0.5c0,0.3,0.3,0.5,0.5,0.5h0.1l0.5,5.5c-0.3,0-0.4,0.3-0.4,0.5c0,0.3,0.3,0.5,0.5,0.5h9.3
		c0.3,0,0.5-0.3,0.5-0.5s-0.1-0.5-0.4-0.5l0.5-5.5h0.1c0.3,0,0.5-0.3,0.5-0.5C17.9,10,17.7,9.7,17.4,9.7L17.4,9.7z M13.8,15.1h-3.5
		c-0.3,0-0.5-0.3-0.5-0.5c0-0.3,0.3-0.5,0.5-0.5h3.6c0.3,0,0.5,0.3,0.5,0.5C14.5,14.8,14.1,15.1,13.8,15.1L13.8,15.1z M13.8,12.8
		h-3.5c-0.3,0-0.5-0.3-0.5-0.5c0-0.3,0.3-0.5,0.5-0.5h3.6c0.3,0,0.5,0.3,0.5,0.5C14.3,12.7,14.1,12.8,13.8,12.8L13.8,12.8z"/>
</g>
</svg>
