<?xml version="1.0" encoding="utf-8"?>
<!-- Generator: Adobe Illustrator 25.2.1, SVG Export Plug-In . SVG Version: 6.00 Build 0)  -->
<svg version="1.1" id="poi-beauty" xmlns="http://www.w3.org/2000/svg" xmlns:xlink="http://www.w3.org/1999/xlink" x="0px"
	 y="0px" viewBox="0 0 24 24" style="enable-background:new 0 0 24 24;" xml:space="preserve">

<path fill="#fff" d="M14.3,10.8H9.8c-0.3,0-0.6,0.3-0.6,0.4v7.6c0,0.3,0.3,0.6,0.4,0.6h4.5c0.3,0,0.4-0.3,0.4-0.5v-7.8
	C14.7,11.1,14.4,10.8,14.3,10.8z M13.7,4.9c0-0.2-0.1-0.3-0.3-0.4c-0.1-0.2-0.3,0-0.4,0.2l-2.6,1.8c0,0-0.1,0.2-0.1,0.3v3h3.4
	C13.7,9.8,13.7,4.9,13.7,4.9z"/>
</svg>
