<?xml version="1.0" encoding="utf-8"?>
<!-- Generator: Adobe Illustrator 25.2.1, SVG Export Plug-In . SVG Version: 6.00 Build 0)  -->
<svg version="1.1" id="레이어_1" xmlns="http://www.w3.org/2000/svg" xmlns:xlink="http://www.w3.org/1999/xlink" x="0px"
	 y="0px" viewBox="0 0 24 24" style="enable-background:new 0 0 24 24;" xml:space="preserve">
<path fill="#fff" d="M18.2,9.3c0-0.3-0.1-0.6-0.3-0.8c-0.3-0.6-0.6-0.9-1-1.2C16.6,7,16.1,7,15.8,7c-0.3,0.2-0.4,0.4-0.6,0.6
	c-1.1,1.7-2.2,3.2-3.4,4.7c-0.3,0.4-0.8,0.9-1.2,1.1c-0.4,0.1-0.9,0.3-1.4,0c-0.1,0-0.3-0.1-0.3-0.1c-0.3,0-0.8,0-0.9,0.1l-1.5,0.6
	c-0.3,0.1-0.6,0.3-0.8,0.4c-0.4,0.4-0.6,1.1-0.6,1.5c0,0.3,0.3,0.9,0.9,1.1c0.8,0.2,1.5,0.3,2.1,0.3h2.1c0.3,0,0.8,0,1.2-0.1
	c0.6-0.3,1.5-0.6,1.9-1.2c0.8-0.8,1.4-1.5,1.9-2.1l1,3c0.1,0.3,0.3,0.3,0.5,0.3h1c0.3,0,0.6-0.3,0.6-0.6v-6.2
	C18.5,10,18.4,9.6,18.2,9.3z"/>
</svg>
