<?xml version="1.0" encoding="utf-8"?>
<!-- Generator: Adobe Illustrator 25.2.1, SVG Export Plug-In . SVG Version: 6.00 Build 0)  -->
<svg version="1.1" id="레이어_1" xmlns="http://www.w3.org/2000/svg" xmlns:xlink="http://www.w3.org/1999/xlink" x="0px"
	 y="0px" viewBox="0 0 25 24" style="enable-background:new 0 0 25 24;" xml:space="preserve">
<style type="text/css">
	.st0{fill:#FFFFFF;}
</style>
<path class="st0" d="M19.4,10.1l-2.1-3.2H7.8l-2.1,3.2c0,0.7,0.6,1.4,1.4,1.4s1.4-0.6,1.4-1.4c0,0.7,0.6,1.4,1.4,1.4
	c0.9,0,1.4-0.6,1.4-1.4c0,0.7,0.6,1.4,1.4,1.4c0.9,0,1.4-0.6,1.4-1.4c0,0.7,0.6,1.4,1.4,1.4c0.7,0,1.4-0.6,1.4-1.4
	c0,0.7,0.6,1.4,1.4,1.4C19.4,11.4,19.4,10.9,19.4,10.1z M17.9,13c-0.4,0-0.9-0.1-1.1-0.3v2.9H8.2v-2.9C7.8,12.8,7.5,13,7.1,13H6.6
	v4.2h11.7V13C18.4,13,17.9,13,17.9,13z"/>
</svg>
