<?xml version="1.0" encoding="utf-8"?>
<!-- Generator: Adobe Illustrator 25.2.1, SVG Export Plug-In . SVG Version: 6.00 Build 0)  -->
<svg version="1.1" id="레이어_1" xmlns="http://www.w3.org/2000/svg" xmlns:xlink="http://www.w3.org/1999/xlink" x="0px"
	 y="0px" viewBox="0 0 25 24" style="enable-background:new 0 0 25 24;" xml:space="preserve">
<style type="text/css">
	.st0{fill:#FFFFFF;}
</style>
<g>
	<path class="st0" d="M12,8.6c-0.1-0.4,0-0.8,0-0.9c0.1-0.1,0.1-0.3,0.1-0.4h7.7l-0.1-2L5.3,6.8v0.4h1.5C6.5,7.7,6.4,8.3,6.7,9.1
		c0.3,0.8,0.3,1.2,0,1.5c0,0-0.2,0.1-0.2,0.3H5c0,2.6,1.5,4.9,3.9,6v1.8h5.7v-1.8c2.2-1,3.9-3.4,3.9-6.1h-6.3
		C12.7,10,12.4,9.2,12,8.6z M7.8,8.6c-0.2-0.4,0-0.8,0-0.9C8,7.6,8,7.4,8,7.3h0.9c-0.1,0.4-0.3,1.1,0,1.8v0.1c0.3,0.8,0.3,1.2,0,1.5
		c0,0-0.1,0.1-0.1,0.3H7.8C8.3,10,8,9.2,7.8,8.6z M10,8.6c0-0.1-0.1-0.3-0.1-0.4c0-0.3,0.1-0.4,0.1-0.4c0.1-0.1,0.1-0.3,0.1-0.4H11
		c-0.1,0.4-0.3,1.1,0,1.8c0.3,0.8,0.3,1.2,0,1.5c0,0-0.1,0.1-0.1,0.3h-0.8C10.4,10,10.2,9.2,10,8.6z"/>
	<path class="st0" d="M12.6,8.2v0.1c0,0.1,0.1,0.4,0.3,0.6l6.9,0.8L20,7.7h-7.2C12.8,7.9,12.8,8,12.6,8.2z M5.3,7.7v0.6H6V7.7H5.3z"
		/>
</g>
</svg>
