<?xml version="1.0" encoding="utf-8"?>
<!-- Generator: Adobe Illustrator 25.2.1, SVG Export Plug-In . SVG Version: 6.00 Build 0)  -->
<svg version="1.1" id="레이어_1" xmlns="http://www.w3.org/2000/svg" xmlns:xlink="http://www.w3.org/1999/xlink" x="0px"
	 y="0px" viewBox="0 0 24 24" style="enable-background:new 0 0 24 24;" xml:space="preserve">
<style type="text/css">
	.st0{fill:#FFFFFF;}
</style>
<path class="st0" d="M17.9,8.4c0-0.3-0.2-0.6-0.3-0.9C17.4,7.1,17.1,7,16.8,7H7C6.7,7,6.4,7.1,6.3,7.4C6.1,7.7,5.9,8.1,5.9,8.4v3
	c0,0.3,0.3,0.5,0.5,0.5h1.3l0.2-0.9H6.9V8.5C6.9,8.2,7,8.2,7,8.1h9.8c0,0,0.2,0.2,0.2,0.5v2.5h-0.8H16l0.2,0.9h1.4
	c0.2,0,0.3,0,0.3-0.2c0.2-0.2,0.2-0.2,0.2-0.3L17.9,8.4L17.9,8.4z M12.1,12.3l-0.2,0.6h0.3L12.1,12.3z M11.3,13.6l0.1-0.4h-0.2
	L11.3,13.6z"/>
<path class="st0" d="M14.9,9.5h-6l-0.8,6.9H16C16,16.4,14.9,9.5,14.9,9.5z M14,13.1h-0.5L13.2,14h-0.8l-0.2-0.9h-0.3L11.6,14h-0.8
	l-0.2-0.9H10v-0.2h0.6l-0.3-1.1H11l0.2,1.1h0.3l0.2-0.9h0.7l0.2,0.9h0.3l0.2-1.1h0.8l-0.3,0.9H14C14,12.8,14,13.1,14,13.1z M16,16.7
	H8.1V17h7.7L16,16.7z"/>
</svg>
