<?xml version="1.0" encoding="utf-8"?>
<!-- Generator: Adobe Illustrator 25.2.1, SVG Export Plug-In . SVG Version: 6.00 Build 0)  -->
<svg version="1.1" id="레이어_1" xmlns="http://www.w3.org/2000/svg" xmlns:xlink="http://www.w3.org/1999/xlink" x="0px"
	 y="0px" viewBox="0 0 24 24" style="enable-background:new 0 0 24 24;" xml:space="preserve">
<style type="text/css">
	.st0{fill:#FFFFFF;}
</style>
<path class="st0" d="M8.6,15.4c-0.9-0.9-1.4-2.1-1.4-3.4s0.5-2.6,1.4-3.4l1.1,1.1c-0.6,0.6-1,1.4-1,2.3c0,0.9,0.4,1.7,0.9,2.3
	L8.6,15.4z M15.4,15.4c0.9-0.9,1.4-2.1,1.4-3.4s-0.5-2.6-1.4-3.4l-1.1,1.1c0.6,0.6,1,1.4,1,2.3c0,0.9-0.4,1.7-0.9,2.3L15.4,15.4z
	 M12,10.4c-0.9,0-1.6,0.7-1.6,1.6c0,0.9,0.7,1.6,1.6,1.6s1.6-0.7,1.6-1.6C13.6,11.1,12.9,10.4,12,10.4z M18.5,12
	c0,1.8-0.7,3.4-1.9,4.6l1.1,1.1c1.5-1.5,2.4-3.5,2.4-5.7s-0.9-4.3-2.4-5.7l-1.1,1.1C17.7,8.6,18.5,10.2,18.5,12z M7.4,7.4L6.3,6.3
	C4.8,7.7,3.9,9.8,3.9,12s0.9,4.3,2.4,5.7l1.1-1.1c-1.2-1.2-1.9-2.8-1.9-4.6S6.3,8.6,7.4,7.4z"/>
</svg>
