<?xml version="1.0" encoding="utf-8"?>
<!-- Generator: Adobe Illustrator 25.2.1, SVG Export Plug-In . SVG Version: 6.00 Build 0)  -->
<svg version="1.1" id="레이어_1" xmlns="http://www.w3.org/2000/svg" xmlns:xlink="http://www.w3.org/1999/xlink" x="0px"
	 y="0px" viewBox="0 0 24 24" style="enable-background:new 0 0 24 24;" xml:space="preserve">
<style type="text/css">
	.st0{fill:#FFFFFF;}
</style>
<path class="st0" d="M18.7,6.3C15,2.9,9.3,2.9,5.6,6.3c-0.1,0.1-0.1,0.3,0,0.5l0.7,0.7c0.1,0.1,0.3,0.1,0.5,0c3-2.8,7.7-2.8,10.8,0
	c0.1,0.1,0.3,0.1,0.5,0l0.7-0.7C18.9,6.6,18.9,6.4,18.7,6.3L18.7,6.3z M12.1,10.4c-0.7,0-1.3,0.6-1.3,1.3s0.6,1.3,1.3,1.3
	s1.3-0.6,1.3-1.3C13.5,11,12.9,10.4,12.1,10.4z M16.4,8.6c-2.4-2.1-6.1-2.1-8.5,0C7.8,8.8,7.8,9,7.9,9.1l0.7,0.7
	C8.7,10,9,10,9.1,9.9c1.8-1.5,4.4-1.5,6.1,0c0.1,0.1,0.3,0.1,0.5,0l0.7-0.7C16.5,9,16.5,8.8,16.4,8.6z"/>
<path class="st0" d="M17.2,11.6H14v0.1c0,1.1-0.9,1.9-1.9,1.9c-1.1,0-1.9-0.9-1.9-1.9v-0.1H6.8c-0.5,0-1,0.4-1,1v6.7
	c0,0.5,0.4,1,1,1h10.6c0.5,0,1-0.4,1-1v-6.7C18.2,12.1,17.8,11.6,17.2,11.6z M10.2,18.7h-3v-3.8h1.2v2.9h1.9V18.7z M13.6,15.8h-1.2
	v2.9h-1.2v-2.9H10v-0.9h3.6V15.8z M17.1,18.7h-3.2v-3.8H17v0.8h-2v0.6h1.8v0.8H15v0.8h2V18.7z"/>
</svg>
