<?xml version="1.0" encoding="utf-8"?>
<!-- Generator: Adobe Illustrator 25.2.1, SVG Export Plug-In . SVG Version: 6.00 Build 0)  -->
<svg version="1.1" id="레이어_1" xmlns="http://www.w3.org/2000/svg" xmlns:xlink="http://www.w3.org/1999/xlink" x="0px"
	 y="0px" viewBox="0 0 24 24" style="enable-background:new 0 0 24 24;" xml:space="preserve">
<style type="text/css">
	.st0{fill:#FFFFFF;}
</style>
<path class="st0" d="M18.7,6.3C15,2.9,9.3,2.9,5.6,6.3c-0.1,0.1-0.1,0.3,0,0.5l0.7,0.7c0.1,0.1,0.3,0.1,0.5,0c3-2.8,7.7-2.8,10.8,0
	c0.1,0.1,0.3,0.1,0.5,0l0.7-0.7C18.9,6.6,18.9,6.4,18.7,6.3L18.7,6.3z M12.1,10.4c-0.7,0-1.3,0.6-1.3,1.3s0.6,1.3,1.3,1.3
	s1.3-0.6,1.3-1.3C13.5,11,12.9,10.4,12.1,10.4z M16.4,8.6c-2.4-2.1-6.1-2.1-8.5,0C7.8,8.8,7.8,9,7.9,9.1l0.7,0.7
	C8.7,10,9,10,9.1,9.9c1.8-1.5,4.4-1.5,6.1,0c0.1,0.1,0.3,0.1,0.5,0l0.7-0.7C16.5,9,16.5,8.8,16.4,8.6z"/>
<path class="st0" d="M17.2,11.6H14v0.1c0,1.1-0.9,1.9-1.9,1.9c-1.1,0-1.9-0.9-1.9-1.9v-0.1H6.7c-0.5,0-1,0.4-1,1v6.7
	c0,0.5,0.4,1,1,1h10.6c0.5,0,1-0.4,1-1v-6.7C18.2,12.1,17.8,11.6,17.2,11.6z M11.1,18.4c-0.2,0.3-0.4,0.5-0.6,0.6
	c-0.3,0.1-0.6,0.2-1.1,0.2c-0.3,0-0.6,0-0.8-0.1C8.3,19.2,8.2,19.1,8,19c-0.2-0.1-0.3-0.3-0.4-0.4c-0.1-0.1-0.2-0.3-0.2-0.6l1.3-0.1
	c0,0.2,0.1,0.4,0.2,0.5s0.3,0.2,0.4,0.2c0.2,0,0.3-0.1,0.5-0.2C9.9,18.2,10,18,10,17.7c0-0.3-0.1-0.5-0.2-0.6
	c-0.1-0.1-0.3-0.2-0.5-0.2c-0.1,0-0.3,0-0.4,0.1c-0.1,0-0.2,0.1-0.3,0.2L7.5,17L8,14.5h3.1v1.1H9l-0.1,0.7c0.1-0.1,0.3-0.1,0.4-0.2
	c0.1,0,0.3-0.1,0.4-0.1c0.5,0,0.9,0.1,1.2,0.4s0.4,0.6,0.4,1.1C11.3,17.9,11.2,18.2,11.1,18.4z M16.7,18.6c-0.4,0.3-0.8,0.5-1.2,0.6
	c-0.3,0.1-0.7,0.2-1.2,0.2c-0.6,0-1-0.1-1.4-0.3c-0.4-0.2-0.6-0.5-0.8-0.9c-0.2-0.4-0.3-0.8-0.3-1.3c0-0.5,0.1-1,0.3-1.4
	c0.2-0.4,0.5-0.7,0.9-0.9c0.3-0.2,0.8-0.2,1.3-0.2c0.5,0,0.9,0,1.2,0.1c0.3,0.1,0.5,0.2,0.6,0.4c0.2,0.2,0.3,0.5,0.4,0.8L15.2,16
	c-0.1-0.2-0.2-0.3-0.3-0.4c-0.1-0.1-0.3-0.1-0.5-0.1c-0.3,0-0.6,0.1-0.8,0.3c-0.2,0.2-0.3,0.6-0.3,1.1c0,0.5,0.1,0.9,0.3,1.1
	c0.2,0.2,0.5,0.3,0.8,0.3c0.2,0,0.3,0,0.5-0.1c0.1,0,0.3-0.1,0.5-0.2v-0.4h-1v-1h2.3V18.6z"/>
</svg>
