<?xml version="1.0" encoding="utf-8"?>
<!-- Generator: Adobe Illustrator 25.2.1, SVG Export Plug-In . SVG Version: 6.00 Build 0)  -->
<svg version="1.1" id="레이어_1" xmlns="http://www.w3.org/2000/svg" xmlns:xlink="http://www.w3.org/1999/xlink" x="0px"
	 y="0px" viewBox="0 0 24 24" style="enable-background:new 0 0 24 24;" xml:space="preserve">
<style type="text/css">
	.st0{fill:#FFFFFF;}
</style>
<path class="st0" d="M20.2,9.4c-4.7-4.3-11.9-4.3-16.5,0c-0.1,0.1-0.1,0.4,0,0.6l0.9,0.9c0.1,0.1,0.4,0.1,0.6,0
	c3.8-3.5,9.7-3.5,13.6,0c0.1,0.1,0.4,0.1,0.6,0l0.9-0.9C20.5,9.8,20.5,9.5,20.2,9.4L20.2,9.4z M11.9,14.6c-0.9,0-1.6,0.8-1.6,1.6
	c0,0.9,0.8,1.6,1.6,1.6c0.9,0,1.6-0.8,1.6-1.6C13.6,15.3,12.9,14.6,11.9,14.6z M17.3,12.3c-3-2.6-7.7-2.6-10.7,0
	c-0.1,0.3-0.1,0.5,0,0.6l0.9,0.9C7.6,14,8,14,8.1,13.9c2.3-1.9,5.6-1.9,7.7,0c0.1,0.1,0.4,0.1,0.6,0l0.9-0.9
	C17.4,12.8,17.4,12.5,17.3,12.3z"/>
</svg>
