<?xml version="1.0" encoding="utf-8"?>
<!-- Generator: Adobe Illustrator 25.2.1, SVG Export Plug-In . SVG Version: 6.00 Build 0)  -->
<svg version="1.1" id="레이어_1" xmlns="http://www.w3.org/2000/svg" xmlns:xlink="http://www.w3.org/1999/xlink" x="0px"
	 y="0px" viewBox="0 0 24 24" style="enable-background:new 0 0 24 24;" xml:space="preserve">
<style type="text/css">
	.st0{fill:#535353;}
</style>
<path class="st0" d="M15,7l-0.3-2c-0.1-0.3-0.3-0.5-0.6-0.5H9.9C9.6,4.5,9.3,4.7,9.3,5L9,7c0.9-0.6,1.9-0.9,3-0.9S14.1,6.5,15,7z
	 M14.7,19l0.3-2c-0.9,0.5-1.9,0.8-3,0.8S9.9,17.5,9,17l0.3,2c0,0.2,0.1,0.3,0.1,0.3c0.1,0.2,0.3,0.2,0.4,0.2H14
	C14.4,19.5,14.5,19.3,14.7,19z M16.5,12c0-1.2-0.5-2.5-1.4-3.3S13.2,7.3,12,7.3c-2.6,0-4.5,2-4.5,4.7c0,1.2,0.4,2.5,1.4,3.3
	c0.9,0.8,1.9,1.4,3.1,1.4C14.4,16.7,16.5,14.7,16.5,12z M13.1,12.6H12c-0.1,0-0.3,0-0.4-0.2s-0.1-0.3-0.1-0.5V10
	c0-0.3,0.3-0.6,0.6-0.6s0.6,0.3,0.6,0.6v1.4h0.4c0.3,0,0.6,0.3,0.6,0.6C13.7,12.3,13.4,12.6,13.1,12.6z"/>
</svg>
