<?xml version="1.0" encoding="utf-8"?>
<!-- Generator: Adobe Illustrator 25.2.1, SVG Export Plug-In . SVG Version: 6.00 Build 0)  -->
<svg version="1.1" id="레이어_1" xmlns="http://www.w3.org/2000/svg" xmlns:xlink="http://www.w3.org/1999/xlink" x="0px"
	 y="0px" viewBox="0 0 24 24" style="enable-background:new 0 0 24 24;" xml:space="preserve">
<style type="text/css">
	.st0{fill:#535353;}
</style>
<path class="st0" d="M18.1,7.5c0.1-0.1,0.1-0.3,0.1-0.6c0-0.3-0.1-0.6-0.3-0.8c-0.3-0.3-0.9-0.3-1.4,0.1L13,9.9h3.5L18.1,7.5
	L18.1,7.5z M18.3,11H5.6c-0.2,0-0.5,0.2-0.5,0.5v1c0,0.2,0.2,0.5,0.5,0.5h0.8c0.3,1.7,1.5,3.2,2.9,4v0.8c0,0.2,0.2,0.5,0.5,0.5h4.4
	c0.2,0,0.5-0.2,0.5-0.5V17c1.5-0.8,2.6-2.3,2.9-4h0.8c0.2,0,0.5-0.2,0.5-0.5v-1C18.7,11.2,18.5,11,18.3,11z M14.2,15.2
	c0,0.1-0.1,0.2-0.2,0.2h-1.2v1.2c0,0.1-0.1,0.2-0.2,0.2h-1.1c-0.1,0-0.2-0.1-0.2-0.2v-1.4H9.9c-0.1,0-0.2,0-0.2-0.1V14
	c0-0.1,0.1-0.2,0.2-0.2h1.2v-1.2c0-0.1,0.1-0.2,0.2-0.2h1.1c0.1,0,0.2,0.1,0.2,0.2v1.2H14c0.1,0,0.2,0,0.2,0.1
	C14.2,13.9,14.2,15.2,14.2,15.2z"/>
</svg>
