<?xml version="1.0" encoding="utf-8"?>
<!-- Generator: Adobe Illustrator 25.2.1, SVG Export Plug-In . SVG Version: 6.00 Build 0)  -->
<svg version="1.1" id="레이어_1" xmlns="http://www.w3.org/2000/svg" xmlns:xlink="http://www.w3.org/1999/xlink" x="0px"
	 y="0px" viewBox="0 0 24 24" style="enable-background:new 0 0 24 24;" xml:space="preserve">
<style type="text/css">
	.st0{fill:#535353;}
</style>
<path class="st0" d="M19.3,11.7c-1.9-2.2-4.5-3.4-7.3-3.4s-5.5,1.2-7.4,3.4c-0.1,0.1-0.1,0.5,0,0.7c1.9,2.2,4.7,3.4,7.4,3.4
	s5.4-1.2,7.3-3.4C19.6,12.2,19.6,11.8,19.3,11.7z M12,15.1c-1.9,0-3.3-1.4-3.3-3s1.5-3,3.2-3s3.2,1.4,3.2,3S13.8,15.1,12,15.1
	L12,15.1z"/>
<path class="st0" d="M12,14c1.1,0,2-0.9,2-1.9c0-1.1-0.9-1.9-2-1.9s-2,0.9-2,1.9S10.9,14,12,14z"/>
</svg>
