<?xml version="1.0" encoding="utf-8"?>
<!-- Generator: Adobe Illustrator 25.2.1, SVG Export Plug-In . SVG Version: 6.00 Build 0)  -->
<svg version="1.1" id="poi-beauty" xmlns="http://www.w3.org/2000/svg" xmlns:xlink="http://www.w3.org/1999/xlink" x="0px" y="0px"
	 viewBox="0 0 24 24" style="enable-background:new 0 0 24 24;" xml:space="preserve">
<style type="text/css">
	.st0{fill:#535353;}
</style>
<g>
	<path class="st0" d="M16.8,8.6h-2l-0.5-0.8c-0.1-0.2-0.2-0.3-0.5-0.3h-3.6c-0.2,0-0.5,0.1-0.6,0.3L9.2,8.6h-2C6.5,8.6,6,9.1,6,9.8
		v5.6c0,0.6,0.5,1.1,1.2,1.1h9.6c0.6,0,1.2-0.5,1.2-1.1V9.8C18,9.1,17.4,8.6,16.8,8.6z M9.6,12.6c0-1.2,1.1-2.2,2.4-2.2
		s2.4,1,2.4,2.2s-1.1,2.2-2.4,2.2S9.6,13.8,9.6,12.6z M15.6,11.4c-0.4,0-0.6-0.2-0.6-0.6s0.2-0.6,0.6-0.6c0.4,0,0.6,0.2,0.6,0.6
		S16,11.4,15.6,11.4L15.6,11.4z"/>
	<path class="st0" d="M12,13.7c0.7,0,1.2-0.5,1.2-1.1s-0.5-1.1-1.2-1.1s-1.2,0.5-1.2,1.1S11.3,13.7,12,13.7z"/>
</g>
</svg>
