<?xml version="1.0" encoding="utf-8"?>
<!-- Generator: Adobe Illustrator 25.2.1, SVG Export Plug-In . SVG Version: 6.00 Build 0)  -->
<svg version="1.1" id="poi-cloth" xmlns="http://www.w3.org/2000/svg" xmlns:xlink="http://www.w3.org/1999/xlink" x="0px" y="0px"
	 viewBox="0 0 24 24" style="enable-background:new 0 0 24 24;" xml:space="preserve">
<style type="text/css">
	.st0{fill:#535353;}
</style>
<path class="st0" d="M16.3,6l3.1,2.5c0.3,0.3,0.3,0.6,0.3,0.8L18.5,12c0,0.2-0.2,0.3-0.3,0.3h-0.5L16,11.5v0.6H8.1v-0.6l-1.4,0.8
	H6.2c-0.2,0-0.3-0.2-0.3-0.3L4.7,9.3c0-0.2,0-0.5,0.2-0.6L8,6.2C8.1,6,8.3,6,8.4,6h1.7c0.2,0,0.5,0.2,0.5,0.3
	c0.3,0.6,1.1,0.9,1.7,0.9c0.6,0,1.2-0.5,1.5-0.9c0-0.2,0.3-0.3,0.5-0.3H16.3z M7.9,17.4L8.3,13h7.9l0.3,4.4c0,0.2,0,0.3-0.2,0.5
	C16.1,18,16,18,15.8,18H8.6c-0.2,0-0.3,0-0.5-0.2C7.9,17.7,7.9,17.5,7.9,17.4z"/>
</svg>
