<?xml version="1.0" encoding="utf-8"?>
<!-- Generator: Adobe Illustrator 25.2.1, SVG Export Plug-In . SVG Version: 6.00 Build 0)  -->
<svg version="1.1" id="레이어_1" xmlns="http://www.w3.org/2000/svg" xmlns:xlink="http://www.w3.org/1999/xlink" x="0px"
	 y="0px" viewBox="0 0 25 24" style="enable-background:new 0 0 25 24;" xml:space="preserve">
<style type="text/css">
	.st0{fill:#535353;}
</style>
<path class="st0" d="M13.4,4.9c0-0.3,0.2-0.4,0.5-0.4s0.5,0.1,0.5,0.4v3.3h1.1V4.9c0-0.3,0.2-0.4,0.5-0.4c0.3,0,0.5,0.1,0.5,0.4v3.3
	h1.1V4.9c0-0.3,0.3-0.4,0.6-0.4c0.3,0,0.5,0.1,0.5,0.4v5.7c0,0.7-0.6,1.4-1.6,1.4h-0.2l0.6,6.1c0,0.7-0.5,1.3-1.2,1.4
	c-0.8,0-1.4-0.4-1.6-1.1v-0.1l0.6-6.1H15c-0.8,0-1.6-0.6-1.6-1.4C13.4,10.8,13.4,4.9,13.4,4.9z M11.6,8.1c0-2-1.1-3.7-2.7-3.7
	S6.4,6.1,6.4,8.1c0,1.7,0.8,3,1.7,3.6l-0.6,6.4c0,0.7,0.5,1.3,1.2,1.4c0.8,0,1.4-0.4,1.6-1.1v-0.1l-0.5-6.6
	C10.9,11.3,11.6,9.9,11.6,8.1z"/>
</svg>
