<?xml version="1.0" encoding="utf-8"?>
<!-- Generator: Adobe Illustrator 25.2.1, SVG Export Plug-In . SVG Version: 6.00 Build 0)  -->
<svg version="1.1" id="레이어_1" xmlns="http://www.w3.org/2000/svg" xmlns:xlink="http://www.w3.org/1999/xlink" x="0px"
	 y="0px" viewBox="0 0 25 24" style="enable-background:new 0 0 25 24;" xml:space="preserve">
<style type="text/css">
	.st0{fill:#535353;}
</style>
<path class="st0" d="M17.6,10.1c-0.1,1.1-0.7,2.7-1.6,3.5c-0.7,0.5-1.2,0.8-1.9,0.8s-1.2-0.3-1.7-0.8C12,13,11.7,12.5,11.7,12
	c0-0.7,0.4-1.3,0.9-1.9c1-0.8,2.4-1.3,3.4-1.3h0.1c-0.4-0.4-1.2-0.7-2.3-0.7c-0.4,0-0.8,0-1.2,0.1h-0.3c-1.1,0.7-3.1,2.1-3.1,3.2
	c0,0.1-0.1,0.3-0.3,0.3c-0.1,0-0.3-0.1-0.3-0.3c0-0.9,0.8-1.9,1.7-2.5C8.1,10,6,11.7,6,13c0,0.4,0.1,0.8,0.4,1.1
	c0.9,0.9,3.2,1.1,5.9,1.1s5.1-0.1,5.9-1.2c0.3-0.3,0.4-0.5,0.4-0.9C18.5,12.1,18.2,11,17.6,10.1L17.6,10.1z"/>
<path class="st0" d="M18.4,14.6c-0.7,0.5-1.9,0.9-3.6,1.1h-1.2h-3.5c-1.9-0.1-3.2-0.4-3.9-0.9c-0.9,0.1-1.5,0.4-1.5,0.7
	c0,0.7,3.5,1.3,7.7,1.3c4.3,0,7.7-0.5,7.7-1.3C20.4,15.2,19.6,14.8,18.4,14.6z M19.2,8c-0.1-0.1-0.3-0.1-0.4-0.1
	c0-0.1,0-0.4-0.1-0.4c-0.3-0.3-0.5-0.3-0.8-0.1c-0.3,0.1-0.3,0.5,0,0.8H18l-1,0.7l-0.7,0.5c-0.7-0.1-2.4,0.3-3.2,1.1
	c-1.2,1.1-0.9,2-0.3,2.7c0.7,0.7,1.6,0.9,2.7,0c0.9-0.8,1.5-2.4,1.3-3.2l1.3-1.3v0.1C18.4,9,18.8,9,19,8.8S19.3,8.2,19.2,8z"/>
</svg>
