<?xml version="1.0" encoding="utf-8"?>
<!-- Generator: Adobe Illustrator 25.2.1, SVG Export Plug-In . SVG Version: 6.00 Build 0)  -->
<svg version="1.1" id="레이어_1" xmlns="http://www.w3.org/2000/svg" xmlns:xlink="http://www.w3.org/1999/xlink" x="0px"
	 y="0px" viewBox="0 0 25 24" style="enable-background:new 0 0 25 24;" xml:space="preserve">
<style type="text/css">
	.st0{fill:#535353;}
</style>
<path class="st0" d="M6.8,9.5c-1.9,0.9-2.9,2.2-2.9,3.5c0,2.3,3,2.8,8.6,2.8s8.6-0.5,8.6-2.8c0-1.5-1.3-2.9-3.4-3.8l-0.3,1
	c-0.1,0.5-0.9,0.8-1.4,0.7c-0.7-0.1-1.1-0.7-0.9-1.3l0.3-1c-0.4-0.1-1-0.2-1.4-0.2l-0.9,2.4c-0.1,0.5-0.9,0.8-1.4,0.7
	c-0.7-0.2-1.1-0.7-1-1.3l0.7-1.9c-0.6,0-1.1,0.1-1.7,0.2l-0.6,1.7c-0.1,0.6-0.9,0.9-1.4,0.7C7,10.8,6.6,10.2,6.8,9.7L6.8,9.5
	L6.8,9.5z"/>
</svg>
