<?xml version="1.0" encoding="utf-8"?>
<!-- Generator: Adobe Illustrator 25.2.1, SVG Export Plug-In . SVG Version: 6.00 Build 0)  -->
<svg version="1.1" id="레이어_1" xmlns="http://www.w3.org/2000/svg" xmlns:xlink="http://www.w3.org/1999/xlink" x="0px"
	 y="0px" viewBox="0 0 25 24" style="enable-background:new 0 0 25 24;" xml:space="preserve">
<style type="text/css">
	.st0{fill-rule:evenodd;clip-rule:evenodd;fill:#535353;}
</style>
<path class="st0" d="M11.9,8.8l0.3,0.5l-0.9,0.4L11,9.2L11.9,8.8L11.9,8.8z M10.2,9.4l0.6,0.6l-0.5,0.5L9.7,9.8L10.2,9.4L10.2,9.4z
	 M12.4,9.7l0.9,0.3l-0.1,0.5l-0.9-0.3L12.4,9.7L12.4,9.7z M7.1,10.8h9c-0.1-0.6-0.4-1-0.8-1.4L18.4,7l-0.6-0.6L14.6,9
	c-0.1-0.1-0.4-0.3-0.6-0.3L15.8,5L15,4.6l-2,3.8c-0.9-0.8-2.3-0.6-3.2,0.3C8.5,8.5,7.4,9.6,7.1,10.8L7.1,10.8z M6.6,11.9
	c0,2.6,1.9,4.7,4.5,5v1.7H8.5v0.9h5.9v-0.9h-2.6v-1.7c2.6-0.3,4.5-2.4,4.5-5v-0.6H6.6C6.6,11.2,6.6,11.9,6.6,11.9z"/>
</svg>
