<?xml version="1.0" encoding="utf-8"?>
<!-- Generator: Adobe Illustrator 25.2.1, SVG Export Plug-In . SVG Version: 6.00 Build 0)  -->
<svg version="1.1" id="레이어_1" xmlns="http://www.w3.org/2000/svg" xmlns:xlink="http://www.w3.org/1999/xlink" x="0px"
	 y="0px" viewBox="0 0 24 24" style="enable-background:new 0 0 24 24;" xml:space="preserve">
<style type="text/css">
	.st0{fill:#535353;}
</style>
<g>
	<path class="st0" d="M6.9,13.3v-1h10.4v1c1,0,2.2-1,2.2-2.1V8.1c0-0.6-0.4-1-0.9-1H5.4c-0.5,0-0.9,0.4-0.9,1v3.2
		C4.5,12.4,5.9,13.3,6.9,13.3z M7.3,10.3c0-0.6,0.4-1,0.9-1h7.4c0.5,0,0.9,0.4,0.9,1v1H7.3V10.3L7.3,10.3z"/>
	<path class="st0" d="M7.3,10.6v7h9.4v-7H7.3L7.3,10.6z M14.8,15.5H9.1v-1h5.6L14.8,15.5L14.8,15.5z M14.8,13.6H9.1v-1.1h5.6
		L14.8,13.6L14.8,13.6z"/>
</g>
</svg>
