<?xml version="1.0" encoding="utf-8"?>
<!-- Generator: Adobe Illustrator 25.4.0, SVG Export Plug-In . SVG Version: 6.00 Build 0)  -->
<svg version="1.1" id="레이어_1" xmlns="http://www.w3.org/2000/svg" xmlns:xlink="http://www.w3.org/1999/xlink" x="0px"
	 y="0px" viewBox="0 0 24 24" style="enable-background:new 0 0 24 24;" xml:space="preserve">
<style type="text/css">
	.st0{fill:#E83B3B;}
	.st1{fill:#FFFFFF;}
</style>
<g>
	<path class="st0" d="M12.1,13.2c-0.8,0-1.5-0.7-1.5-1.5s0.7-1.6,1.5-1.6c0.5,0,0.9,0.2,1.2,0.5s0.4,0.7,0.3,1.1
		C13.7,12.5,12.9,13.2,12.1,13.2z M15.4,10.2c-0.2,0-0.3-0.1-0.4-0.1C14.3,9.4,13.2,9,12.2,9c-1.1,0-2.1,0.4-2.9,1.1
		c-0.1,0.1-0.2,0.1-0.4,0.1s-0.4-0.1-0.5-0.3L7.7,9.3c-0.2-0.2-0.2-0.5,0-0.8c1.3-1.1,2.8-1.7,4.5-1.7c1.6,0,3.2,0.6,4.4,1.6
		c0.2,0.3,0.2,0.6,0.1,0.9L16,10.1C15.7,10.2,15.5,10.2,15.4,10.2z M17.8,7.8c-0.2,0-0.3-0.1-0.4-0.1c-1.4-1.3-3.3-2-5.3-2
		c-1.9,0-3.8,0.7-5.2,2C6.8,7.8,6.6,7.8,6.5,7.8c-0.2,0-0.3-0.1-0.4-0.1L5.4,7c-0.2-0.4-0.2-0.7,0-0.9c1.8-1.7,4.2-2.6,6.7-2.6
		s4.9,0.9,6.7,2.6c0.1,0,0.2,0.1,0.2,0.3c0.1,0.2,0,0.3-0.1,0.5l-0.7,0.8C18.1,7.8,17.9,7.8,17.8,7.8z"/>
	<path class="st1" d="M12.1,3.8c2.4,0,4.7,0.9,6.6,2.6c0.2,0.1,0.2,0.3,0.1,0.5l-0.7,0.7c-0.1,0.1-0.2,0.1-0.3,0.1s-0.2,0-0.2-0.1
		c-1.6-1.4-3.5-2.1-5.4-2.1s-3.9,0.6-5.4,2C6.7,7.6,6.6,7.6,6.5,7.6s-0.2,0-0.2-0.1L5.6,6.8c-0.1-0.2-0.1-0.4,0-0.5
		C7.4,4.6,9.8,3.8,12.1,3.8 M12.1,7c1.5,0,3.1,0.5,4.2,1.6c0.1,0.2,0.1,0.4,0,0.6l-0.7,0.7c0,0.1-0.1,0.1-0.2,0.1s-0.2,0-0.2-0.1
		c-0.9-0.8-1.9-1.1-3-1.1S10,9.2,9.1,9.9c0,0-0.1,0.1-0.2,0.1c-0.1,0-0.2,0-0.3-0.2L7.9,9.1C7.8,9,7.8,8.8,7.9,8.6
		C9.1,7.6,10.6,7,12.1,7 M12.1,10.4c0.8,0,1.4,0.6,1.3,1.3c0,0.7-0.6,1.3-1.3,1.3s-1.3-0.6-1.3-1.3S11.4,10.4,12.1,10.4 M12.1,3.2
		c-2.6,0-5,1-6.9,2.7C5,6.2,5,6.6,5.2,7v0.1l0.1,0.1L6,7.9C6.1,8,6.3,8.1,6.5,8.1S6.8,8.1,7,8h0.1h0.1c1.4-1.3,3.1-2,5-2
		s3.7,0.7,5.1,2c0.1,0.1,0.3,0.2,0.5,0.2s0.3,0,0.5-0.1h0.1L18.5,8l0.7-0.7l0.1-0.1V7.1c0.1-0.2,0.1-0.4,0.1-0.6S19.2,6.1,19,6
		C17.1,4.2,14.7,3.2,12.1,3.2L12.1,3.2z M12.1,6.5c-1.7,0-3.3,0.6-4.6,1.7l0,0.1v0.1c-0.2,0.4-0.2,0.8,0,1.1l0.7,0.7
		c0.1,0.2,0.4,0.4,0.7,0.4c0.2,0,0.4-0.1,0.6-0.2c0.7-0.6,1.7-1,2.7-1s2,0.4,2.7,1c0.1,0.1,0.3,0.2,0.5,0.2s0.3,0,0.5-0.1H16
		l0.1-0.1l0.7-0.7l0.1-0.1V9.5c0.2-0.3,0.2-0.7,0-1V8.4l-0.1-0.1C15.5,7.1,13.9,6.5,12.1,6.5L12.1,6.5z M12.1,9.9
		c-1,0-1.8,0.8-1.8,1.8s0.8,1.8,1.8,1.8s1.8-0.8,1.8-1.8c0.1-0.4-0.1-0.9-0.4-1.2C13.2,10.1,12.7,9.9,12.1,9.9L12.1,9.9z"/>
</g>
<g>
	<path class="st0" d="M6.7,20.5c-0.8,0-1.2-0.6-1.2-1.2v-6.7c0-0.8,0.6-1.2,1.2-1.2h3.8v0.4c0,0.9,0.7,1.6,1.6,1.6
		c0.9,0,1.7-0.7,1.7-1.6v-0.4h3.5c0.8,0,1.2,0.6,1.3,1.2v6.7c0,0.8-0.6,1.2-1.2,1.2H6.7z"/>
	<path class="st1" d="M17.2,11.6c0.6,0,1,0.5,1.1,1v6.7c0,0.6-0.5,1-1,1H6.7c-0.6,0-1-0.5-1-1v-6.7c0-0.6,0.5-1,1-1h3.5v0.1
		c0,1,0.8,1.9,1.9,1.9c1,0,1.9-0.8,1.9-1.9v-0.1L17.2,11.6 M17.2,11.1H14h-0.5v0.5v0.1c0,0.9-0.7,1.4-1.4,1.4
		c-0.9,0-1.4-0.7-1.4-1.4v-0.1v-0.5h-0.5H6.7c-0.8,0-1.5,0.7-1.5,1.5v6.7c0,0.8,0.7,1.5,1.5,1.5h10.6c0.8,0,1.5-0.7,1.5-1.5v-6.7
		l0,0l0,0C18.7,11.8,18.1,11.1,17.2,11.1L17.2,11.1z"/>
</g>
<g>
	<path class="st1" d="M11.1,18.4c-0.2,0.3-0.4,0.5-0.6,0.6c-0.3,0.1-0.7,0.3-1.2,0.3c-0.3,0-0.7-0.1-0.9-0.1c0,0-0.3-0.1-0.5-0.2
		s-0.3-0.3-0.4-0.4S7.4,18.3,7.4,18l1.3-0.1c0,0.2,0.1,0.4,0.2,0.5s0.3,0.2,0.4,0.2c0.2,0,0.3-0.1,0.5-0.2C9.9,18.2,10,18,10,17.7
		s-0.1-0.5-0.2-0.6c-0.1-0.1-0.3-0.2-0.5-0.2c-0.1,0-0.3,0-0.4,0.1c-0.1,0-0.2,0.1-0.3,0.2L7.5,17L8,14.5h3.1v1.1H9l-0.1,0.7
		c0.1-0.1,0.3-0.1,0.4-0.2c0.1,0,0.3-0.1,0.4-0.1c0.5,0,0.9,0.1,1.2,0.4s0.4,0.6,0.4,1.1C11.3,17.9,11.2,18.2,11.1,18.4z"/>
</g>
<g>
	<path class="st1" d="M16.7,18.6c-0.4,0.3-0.8,0.5-1.2,0.6c-0.3,0.1-0.7,0.2-1.2,0.2c-0.6,0-1-0.1-1.4-0.3c-0.4-0.2-0.6-0.5-0.8-0.9
		s-0.3-0.8-0.3-1.3s0.1-1,0.3-1.4s0.5-0.7,0.9-0.9c0.3-0.2,0.8-0.2,1.3-0.2s0.9,0,1.2,0.1s0.5,0.2,0.6,0.4c0.2,0.2,0.3,0.5,0.4,0.8
		L15.2,16c-0.1-0.2-0.2-0.3-0.3-0.4c-0.1-0.1-0.3-0.1-0.5-0.1c-0.3,0-0.6,0.1-0.8,0.3s-0.3,0.6-0.3,1.1s0.1,0.9,0.3,1.1
		s0.5,0.3,0.8,0.3c0.2,0,0.3,0,0.5-0.1c0.1,0,0.3-0.1,0.5-0.2v-0.4h-1v-1h2.3C16.7,16.6,16.7,18.6,16.7,18.6z"/>
</g>
</svg>
