<?xml version="1.0" encoding="utf-8"?>
<!-- Generator: Adobe Illustrator 25.4.0, SVG Export Plug-In . SVG Version: 6.00 Build 0)  -->
<svg version="1.1" id="레이어_1" xmlns="http://www.w3.org/2000/svg" xmlns:xlink="http://www.w3.org/1999/xlink" x="0px"
	 y="0px" viewBox="0 0 24 24" style="enable-background:new 0 0 24 24;" xml:space="preserve">
<style type="text/css">
	.st0{fill:#E83B3B;}
	.st1{fill:#FFFFFF;}
</style>
<g>
	<path class="st0" d="M11.9,18c-1,0-1.9-0.9-1.9-1.8s0.9-1.9,1.9-1.9c0.6,0,1.1,0.2,1.5,0.6c0.3,0.3,0.5,0.8,0.4,1.3
		C13.8,17.2,12.9,18,11.9,18z M16.1,14.2c-0.1,0-0.3,0-0.4-0.1c-1-0.9-2.2-1.4-3.6-1.4s-2.7,0.5-3.8,1.4c-0.1,0.1-0.3,0.1-0.4,0.1
		c-0.3,0-0.5-0.1-0.6-0.3l-0.9-0.8c-0.3-0.3-0.1-0.7-0.1-0.9v-0.1h0.1c1.5-1.3,3.5-2,5.5-2c2.1,0,4,0.7,5.5,2c0.2,0.3,0.2,0.7,0.1,1
		l-0.9,1C16.4,14.2,16.2,14.2,16.1,14.2z M19.1,11.2c-0.1,0-0.3,0-0.4-0.1c-1.8-1.6-4.2-2.6-6.7-2.6s-4.8,0.9-6.6,2.6
		c-0.2,0.1-0.3,0.1-0.5,0.1c-0.1,0-0.3,0-0.4-0.1l-0.9-0.9c-0.2-0.3-0.2-0.8,0-1C5.9,7.1,8.9,5.9,12,5.9s6.1,1.2,8.4,3.3
		c0.2,0.1,0.3,0.2,0.3,0.4s0,0.4-0.2,0.6l-0.9,0.9C19.4,11.2,19.2,11.2,19.1,11.2z"/>
	<path class="st1" d="M11.9,6.2c3,0,5.9,1.1,8.3,3.2c0.3,0.1,0.3,0.4,0.1,0.6l-0.9,0.9C19.3,11,19.2,11,19.1,11s-0.2,0-0.3-0.1
		c-1.9-1.8-4.4-2.6-6.8-2.6s-4.9,0.9-6.8,2.6C5.1,10.9,5,11,4.9,11s-0.2,0-0.3-0.1L3.7,10c-0.1-0.2-0.1-0.5,0-0.6
		C6,7.2,8.9,6.2,11.9,6.2 M11.9,10.3c1.9,0,3.9,0.7,5.3,2c0.1,0.2,0.1,0.5,0,0.7l-0.9,0.9C16.2,14,16.1,14,16,14
		c-0.1,0-0.2,0-0.3-0.1c-1.1-0.9-2.4-1.4-3.8-1.4S9.1,13,8,13.9c0,0-0.1,0.1-0.2,0.1s-0.3,0-0.4-0.2l-0.9-0.9
		c-0.1-0.1-0.1-0.3,0-0.6C8.1,11,10,10.3,11.9,10.3 M11.9,14.6c1,0,1.7,0.7,1.6,1.6c0,0.8-0.7,1.6-1.6,1.6c-0.8,0-1.6-0.7-1.6-1.6
		C10.3,15.4,11,14.6,11.9,14.6 M11.9,5.7C8.7,5.7,5.7,6.9,3.4,9c-0.3,0.3-0.3,0.8-0.1,1.2v0.1l0.1,0.1l0.9,0.9
		c0.1,0.1,0.4,0.2,0.6,0.2s0.4,0,0.6-0.1h0.1h0.1c1.7-1.6,4-2.5,6.4-2.5s4.7,0.9,6.5,2.5c0.1,0.1,0.3,0.2,0.6,0.2
		c0.2,0,0.4,0,0.6-0.1h0.1l0.1-0.1l0.9-0.9c0.2-0.2,0.3-0.5,0.3-0.8c-0.1-0.2-0.2-0.4-0.4-0.5C18.1,6.8,15.1,5.7,11.9,5.7L11.9,5.7z
		 M11.9,9.8c-2.1,0-4.1,0.7-5.7,2.1V12v0.1c-0.1,0.2-0.2,0.7,0.1,1.1l0.9,0.9c0.2,0.2,0.4,0.4,0.8,0.4c0.1,0,0.4,0,0.6-0.2
		c1-0.8,2.3-1.3,3.6-1.3s2.5,0.5,3.4,1.3c0.1,0.1,0.3,0.2,0.6,0.2c0.2,0,0.4,0,0.6-0.1h0.1l0.1-0.1l0.9-0.9l0.1-0.1v-0.1
		c0.2-0.3,0.2-0.8,0-1.1V12l-0.1-0.1C16.1,10.6,14.1,9.8,11.9,9.8L11.9,9.8z M11.9,14.1c-1.1,0-2.1,1-2.1,2.1s1,2.1,2.1,2.1
		s2.1-1,2.1-2.1c0.1-0.5-0.1-1.1-0.5-1.4C13.1,14.3,12.6,14.1,11.9,14.1L11.9,14.1z"/>
</g>
</svg>
