<?xml version="1.0" encoding="utf-8"?>
<!-- Generator: Adobe Illustrator 25.4.0, SVG Export Plug-In . SVG Version: 6.00 Build 0)  -->
<svg version="1.1" id="레이어_1" xmlns="http://www.w3.org/2000/svg" xmlns:xlink="http://www.w3.org/1999/xlink" x="0px"
	 y="0px" viewBox="0 0 24 24" style="enable-background:new 0 0 24 24;" xml:space="preserve">
<style type="text/css">
	.st0{fill:#E83B3B;}
	.st1{fill:#FFFFFF;}
</style>
<g>
	<path class="st0" d="M10.8,21.2v-5.9l-3.5,3.6l-1.6-1.6l4.7-4.6L5.6,7.9l1.6-1.4l3.5,3.5V4h1.2L17,9l-3.6,3.5l3.6,3.6l-5,5.1H10.8z
		 M13,17.2l1-1l-1-0.9V17.2z M13,10l1-1l-1-1V10z"/>
	<path class="st1" d="M11.8,4.2L16.6,9L13,12.5l3.6,3.6l-4.8,4.8H11v-6.3l-3.8,3.8L6,17.2l4.7-4.6L6,7.9l1.2-1.1l3.8,3.7V4.2H11.8
		 M12.7,10.6L14.3,9l-1.6-1.6V10.6 M12.7,17.8l1.6-1.6l-1.6-1.5V17.8 M12,3.7h-0.2H11h-0.5v0.5v5.1l-3-2.9L7.2,6.1L6.9,6.4L5.7,7.5
		L5.3,7.9l0.4,0.4l4.3,4.3l-4.3,4.2l-0.4,0.4l0.4,0.4l1.2,1.2l0.4,0.4l0.4-0.4l2.9-2.9V21v0.5H11h0.8H12l0.1-0.1l4.8-4.8l0.4-0.4
		L17,15.7l-3.2-3.2L17,9.4L17.3,9L17,8.6l-4.8-4.8L12,3.7L12,3.7z M13.2,9.4V8.6L13.6,9L13.2,9.4L13.2,9.4z M13.2,16.6v-0.7l0.4,0.4
		L13.2,16.6L13.2,16.6z"/>
</g>
</svg>
