<?xml version="1.0" encoding="utf-8"?>
<!-- Generator: Adobe Illustrator 25.4.0, SVG Export Plug-In . SVG Version: 6.00 Build 0)  -->
<svg version="1.1" id="레이어_1" xmlns="http://www.w3.org/2000/svg" xmlns:xlink="http://www.w3.org/1999/xlink" x="0px"
	 y="0px" viewBox="0 0 24 24" style="enable-background:new 0 0 24 24;" xml:space="preserve">
<style type="text/css">
	.st0{fill:#E83B3B;}
	.st1{fill:#FFFFFF;}
</style>
<g>
	<path class="st0" d="M16.2,16.6l0.2-0.2c1.2-1.2,1.8-2.7,1.8-4.4c0-1.6-0.7-3.1-1.8-4.4l-0.2-0.2L17.7,6l0.2,0.2
		c1.6,1.4,2.5,3.6,2.5,5.9c0,2.2-0.9,4.3-2.5,5.9l-0.2,0.2L16.2,16.6z M6.1,17.9c-1.6-1.4-2.5-3.6-2.5-5.9s0.9-4.4,2.5-5.9L6.3,6
		l1.4,1.4L7.6,7.6C6.4,8.9,5.8,10.4,5.8,12c0,1.7,0.6,3.2,1.8,4.4l0.2,0.2L6.3,18L6.1,17.9z M14.1,14.3l0.1-0.2
		c0.4-0.5,0.8-1.2,0.8-2.1c0-0.8-0.3-1.5-0.9-2.1l-0.2-0.2l1.4-1.4l0.2,0.2c1,0.7,1.5,2.1,1.5,3.5s-0.5,2.6-1.5,3.6l-0.2,0.2
		L14.1,14.3z M8.4,15.6c-1-1-1.5-2.2-1.5-3.6s0.6-2.8,1.5-3.6l0.2-0.2L10,9.6L9.9,9.9C9.3,10.5,9,11.2,9,12c0,0.9,0.5,1.7,0.8,2.1
		l0.1,0.2l-1.3,1.5L8.4,15.6z M12,13.8c-1,0-1.9-0.8-1.9-1.8s0.8-1.9,1.9-1.9c1,0,1.8,0.8,1.8,1.9C13.8,13,13,13.8,12,13.8z"/>
	<path class="st1" d="M17.7,6.3c1.5,1.4,2.4,3.5,2.4,5.7s-0.9,4.2-2.4,5.7l-1.1-1.1c1.2-1.2,1.9-2.8,1.9-4.6s-0.8-3.4-1.9-4.6
		L17.7,6.3 M6.3,6.3l1.1,1.1C6.3,8.6,5.5,10.2,5.5,12s0.7,3.4,1.9,4.6l-1.1,1.1c-1.5-1.4-2.4-3.5-2.4-5.7S4.8,7.7,6.3,6.3 M15.4,8.6
		c0.9,0.8,1.4,2.1,1.4,3.4s-0.5,2.5-1.4,3.4l-1-1.1c0.5-0.6,0.9-1.4,0.9-2.3s-0.4-1.7-1-2.3L15.4,8.6 M8.6,8.6l1.1,1.1
		c-0.6,0.6-1,1.4-1,2.3s0.4,1.7,0.9,2.3l-1,1.1c-0.9-0.9-1.4-2.1-1.4-3.4S7.7,9.4,8.6,8.6 M12,10.4c0.9,0,1.6,0.7,1.6,1.6
		s-0.7,1.6-1.6,1.6s-1.6-0.7-1.6-1.6S11.1,10.4,12,10.4 M17.7,5.6l-0.3,0.3L16.2,7l-0.3,0.3l0.3,0.4C17.4,9,18,10.5,18,12
		c0,1.6-0.6,3.1-1.8,4.2l-0.4,0.4l0.4,0.4l1.1,1.1l0.4,0.4l0.4-0.4c1.6-1.6,2.5-3.8,2.5-6.1S19.7,7.5,18,5.9L17.7,5.6L17.7,5.6z
		 M6.3,5.6L6,5.9C4.3,7.5,3.4,9.7,3.4,12s0.9,4.5,2.6,6.1l0.4,0.3l0.3-0.3L7.8,17l0.4-0.4l-0.4-0.4C6.6,15.1,6,13.6,6,12
		c0-1.5,0.6-3,1.8-4.3l0.3-0.4L7.8,7L6.7,5.9L6.3,5.6L6.3,5.6z M15.4,7.9L15,8.2l-1.1,1.1l-0.4,0.4l0.4,0.4c0.6,0.6,0.9,1.2,0.9,1.9
		c0,0.9-0.4,1.6-0.8,2l-0.3,0.3l0.3,0.3l1,1.1l0.4,0.4l0.4-0.4c1-1,1.5-2.3,1.5-3.8S16.7,9,15.7,8.1L15.4,7.9L15.4,7.9z M8.6,7.9
		L8.3,8.2c-1,0.9-1.6,2.3-1.6,3.8c0,1.4,0.5,2.8,1.5,3.8l0.4,0.4L9,15.7l1-1.1l0.3-0.3L10,14c-0.4-0.4-0.8-1.1-0.8-2
		c0-0.7,0.3-1.4,0.9-1.9l0.4-0.4l-0.4-0.4L9,8.2L8.6,7.9L8.6,7.9z M12,9.9c-1.2,0-2.1,0.9-2.1,2.1s0.9,2.1,2.1,2.1s2.1-0.9,2.1-2.1
		S13.2,9.9,12,9.9L12,9.9z"/>
</g>
</svg>
