<?xml version="1.0" encoding="utf-8"?>
<!-- Generator: Adobe Illustrator 25.2.1, SVG Export Plug-In . SVG Version: 6.00 Build 0)  -->
<svg version="1.1" id="레이어_1" xmlns="http://www.w3.org/2000/svg" xmlns:xlink="http://www.w3.org/1999/xlink" x="0px"
	 y="0px" viewBox="0 0 24 24" style="enable-background:new 0 0 24 24;" xml:space="preserve">
<style type="text/css">
	.st0{fill:#535353;}
</style>
<path class="st0" d="M18.9,10.1l-2.1-3.2H7.3l-2.1,3.2c0,0.7,0.6,1.4,1.4,1.4S8,10.9,8,10.1c0,0.7,0.6,1.4,1.4,1.4
	c0.9,0,1.4-0.6,1.4-1.4c0,0.7,0.6,1.4,1.4,1.4c0.9,0,1.4-0.6,1.4-1.4c0,0.7,0.6,1.4,1.4,1.4c0.7,0,1.4-0.6,1.4-1.4
	c0,0.7,0.6,1.4,1.4,1.4C18.9,11.4,18.9,10.9,18.9,10.1z M17.4,13c-0.4,0-0.9-0.1-1.1-0.3v2.9H7.7v-2.9C7.3,12.8,7,13,6.6,13H6.1v4.2
	h11.7V13C17.9,13,17.4,13,17.4,13z"/>
</svg>
